<svg aria-hidden="true" style="position: absolute; width: 0; height: 0; overflow: hidden;" version="1.1" xmlns="http://www.w3.org/2000/svg" xmlns:xlink="http://www.w3.org/1999/xlink">
<defs>
<symbol id="icon-antenna" viewBox="0 0 32 32">
<path d="M30.303 21.786l-8.313-8.374 0.923-4.544c0.238 0.093 0.491 0.142 0.747 0.143h0.006c1.174 0.014 2.137-0.927 2.151-2.1s-0.927-2.137-2.1-2.151c-1.174-0.014-2.137 0.927-2.151 2.1-0.003 0.251 0.039 0.501 0.123 0.738l-4.884 0.596-7.966-8.008c-0.098-0.1-0.231-0.156-0.371-0.158-0.138 0.001-0.27 0.056-0.368 0.153l-1.489 1.481c-0.205 0.205-0.205 0.537 0 0.743l0.801 0.813c-3.105 5.709-2.096 12.778 2.481 17.391 0.042 0.040 0.091 0.073 0.144 0.096-0.033 0.178-0.050 0.358-0.051 0.539v6.091h-6.302c-1.449 0.002-2.624 1.176-2.626 2.626v1.050c0 0.29 0.235 0.525 0.525 0.525h24.156c0.29 0 0.525-0.235 0.525-0.525v-1.050c-0.002-1.449-1.176-2.624-2.626-2.626h-6.302v-2.7c0.987 0.207 1.993 0.313 3.002 0.315 2.42-0.003 4.802-0.606 6.932-1.756l0.806 0.81c0.098 0.1 0.231 0.156 0.371 0.158 0.138-0.001 0.27-0.056 0.368-0.153l1.489-1.481c0.205-0.205 0.205-0.537 0-0.742zM22.925 6.166c0.411-0.409 1.076-0.407 1.485 0.004s0.407 1.076-0.004 1.485c-0.197 0.196-0.463 0.306-0.741 0.306h-0.003c-0.58-0.003-1.048-0.476-1.045-1.056 0.001-0.278 0.113-0.543 0.31-0.739h-0.002zM21.689 9.617l-0.589 2.9-1.157-1.164 1.747-1.736zM21.092 8.729l-1.89 1.879-1.462-1.47 3.353-0.409zM23.638 28.386c0.87 0 1.575 0.705 1.575 1.575v0.525h-23.106v-0.525c0-0.87 0.705-1.575 1.575-1.575h19.955zM16.286 26.285v1.050h-5.251v-1.050h5.251zM11.035 25.235v-3.991c0-1.274 1.178-2.311 2.626-2.311s2.626 1.037 2.626 2.311v3.991h-5.251zM17.336 23.565v-2.321c0-1.853-1.649-3.361-3.676-3.361-1.311-0.020-2.536 0.647-3.231 1.759-3.995-4.208-4.895-10.481-2.244-15.643l18.316 18.421c-2.828 1.439-6.070 1.844-9.166 1.145zM28.452 22.892l-20.733-20.855 0.743-0.74 7.813 7.857c0.004 0 0.006 0.007 0.009 0.009l12.913 12.989-0.745 0.74z"></path>
<path d="M13.665 19.984h-0.005c-0.87-0.001-1.576 0.703-1.578 1.573s0.703 1.576 1.573 1.578h0.005c0.87 0.001 1.576-0.703 1.578-1.573s-0.703-1.576-1.573-1.578zM14.033 21.931c-0.099 0.098-0.233 0.153-0.372 0.153-0.29-0.001-0.524-0.238-0.522-0.528 0.001-0.139 0.056-0.272 0.155-0.37s0.23-0.152 0.368-0.153c0.29 0.002 0.524 0.238 0.522 0.528-0.001 0.139-0.056 0.272-0.155 0.37h0.005z"></path>
</symbol>
<symbol id="icon-astronaut" viewBox="0 0 32 32">
<path d="M31.482 4.512c-0.062-0.19-0.226-0.328-0.424-0.357l-1.881-0.274-0.842-1.705c-0.176-0.359-0.765-0.359-0.942 0l-0.842 1.705-1.881 0.274c-0.198 0.029-0.362 0.167-0.424 0.357-0.061 0.19-0.011 0.399 0.133 0.538l1.362 1.327-0.321 1.874c-0.034 0.197 0.047 0.396 0.209 0.514 0.163 0.119 0.377 0.133 0.553 0.040l1.683-0.885 1.683 0.885c0.077 0.040 0.161 0.060 0.245 0.060 0.109 0 0.217-0.034 0.309-0.1 0.162-0.118 0.243-0.317 0.209-0.514l-0.321-1.874 1.362-1.327c0.143-0.14 0.194-0.348 0.133-0.538zM29.057 5.818c-0.123 0.12-0.18 0.295-0.151 0.465l0.188 1.097-0.985-0.518c-0.077-0.040-0.161-0.060-0.245-0.060s-0.168 0.020-0.245 0.060l-0.985 0.518 0.188-1.097c0.029-0.17-0.027-0.344-0.151-0.465l-0.798-0.777 1.102-0.16c0.171-0.025 0.319-0.132 0.395-0.287l0.493-0.998 0.493 0.998c0.077 0.155 0.224 0.263 0.395 0.287l1.102 0.16-0.797 0.777z"></path>
<path d="M25.731 20.264h-1.050v1.050h1.050v-1.050z"></path>
<path d="M25.731 22.364h-1.050v1.050h1.050v-1.050z"></path>
<path d="M26.782 21.314h-1.050v1.050h1.050v-1.050z"></path>
<path d="M24.681 21.314h-1.050v1.050h1.050v-1.050z"></path>
<path d="M22.055 26.040h-1.050v1.050h1.050v-1.050z"></path>
<path d="M22.055 28.141h-1.050v1.050h1.050v-1.050z"></path>
<path d="M23.106 27.091h-1.050v1.050h1.050v-1.050z"></path>
<path d="M21.005 27.091h-1.050v1.050h1.050v-1.050z"></path>
<path d="M15.754 23.94h-1.050v1.050h1.050v-1.050z"></path>
<path d="M15.754 26.040h-1.050v1.050h1.050v-1.050z"></path>
<path d="M16.804 24.99h-1.050v1.050h1.050v-1.050z"></path>
<path d="M14.704 24.99h-1.050v1.050h1.050v-1.050z"></path>
<path d="M5.776 6.085h-1.050v1.050h1.050v-1.050z"></path>
<path d="M5.776 8.186h-1.050v1.050h1.050v-1.050z"></path>
<path d="M6.827 7.135h-1.050v1.050h1.050v-1.050z"></path>
<path d="M4.726 7.135h-1.050v1.050h1.050v-1.050z"></path>
<path d="M24.335 13.999c-0.283-0.382-0.698-0.628-1.17-0.694-0.474-0.067-0.941 0.057-1.319 0.347l-1.233 0.945-1.868 1.395-1.337-0.532c2.384-1.070 4.050-3.454 4.050-6.223 0-3.764-3.075-6.827-6.854-6.827s-6.854 3.063-6.854 6.827c0 1.364 0.408 2.633 1.103 3.701l-2.721-0.024c-0.002 0-0.003 0-0.005 0-0.008 0-0.015 0.004-0.023 0.005-0.052 0.002-0.103 0.013-0.153 0.030-0.013 0.005-0.026 0.007-0.038 0.013-0.006 0.003-0.013 0.003-0.019 0.006l-3.183 1.572c-0.001 0-0.001 0-0.001 0.001l-1.864 0.896c-0.020 0.009-0.041 0.021-0.062 0.035-0.743 0.495-0.996 1.466-0.589 2.26 0.217 0.422 0.586 0.733 1.040 0.875 0.175 0.055 0.353 0.081 0.531 0.081 0.285 0 0.568-0.070 0.827-0.208l1.366-0.727 2.229-1.151 1.336-0.008-5.358 5.332c-0.001 0.001-0.001 0.001-0.002 0.001l-1.318 1.313c-0.311 0.31-0.483 0.721-0.483 1.16s0.171 0.85 0.483 1.161c0.32 0.318 0.74 0.478 1.161 0.478s0.841-0.16 1.162-0.478l1.294-1.289 1.714-1.28 0.887 0.883-1.735 1.727c-0 0.001-0.001 0.001-0.002 0.001l-1.318 1.313c-0.311 0.31-0.483 0.721-0.483 1.159s0.171 0.85 0.483 1.161c0.32 0.318 0.741 0.478 1.162 0.478s0.842-0.16 1.162-0.478l3.428-3.413c0.001-0.001 0.001-0.001 0.001-0.002l0.994-0.985-0.004-0.004c0.006-0.006 0.015-0.008 0.021-0.015l5.086-5.571 3.418 0.486c0.025 0.004 0.049 0.005 0.074 0.005 0.064 0 0.125-0.015 0.184-0.038 0.017-0.006 0.033-0.015 0.049-0.023 0.019-0.009 0.039-0.015 0.057-0.027l3.164-2.101c0.012-0.008 0.018-0.020 0.029-0.029 0.013-0.010 0.028-0.014 0.040-0.025l1.252-1.173c0.651-0.61 0.741-1.61 0.209-2.325zM2.098 17.554c-0.171 0.091-0.364 0.11-0.55 0.051-0.184-0.057-0.333-0.183-0.42-0.352-0.159-0.309-0.067-0.685 0.211-0.888l1.293-0.622 0.442 1.292-0.977 0.519zM5.541 15.754l-1.524 0.788-0.432-1.264 1.996-0.985-0.039 1.461zM20.408 9.236c0 0.904-0.216 1.757-0.59 2.52l-4.117-1.87c-0.043-0.564-0.336-1.059-0.776-1.366l1.442-4.786c2.341 0.745 4.041 2.929 4.041 5.502zM8.8 9.236c0-3.185 2.604-5.777 5.804-5.777 0.249 0 0.493 0.021 0.734 0.051l-1.41 4.681c-0.019-0.001-0.037-0.006-0.056-0.006-1.017 0-1.844 0.824-1.844 1.838s0.827 1.838 1.844 1.838c0.684 0 1.274-0.378 1.593-0.93l3.803 1.728c-1.058 1.424-2.752 2.353-4.664 2.353-3.2 0-5.804-2.592-5.804-5.777zM14.665 10.024c0 0.434-0.356 0.788-0.793 0.788s-0.793-0.353-0.793-0.788 0.356-0.788 0.793-0.788c0.437 0 0.793 0.353 0.793 0.788zM2.427 24.817c-0.233 0.23-0.609 0.23-0.841 0.001-0.112-0.112-0.173-0.259-0.173-0.416s0.061-0.304 0.173-0.415l0.947-0.944 0.838 0.834-0.944 0.94zM5.591 28.493c-0.233 0.231-0.61 0.231-0.842 0.001-0.112-0.112-0.173-0.259-0.173-0.416s0.061-0.304 0.173-0.415l0.948-0.944 0.839 0.834-0.945 0.94zM9.019 25.077c-0.001 0-0.001 0-0.002 0.001l-1.738 1.733-0.839-0.834 1.736-1.728c0 0 0 0 0-0s0.001-0.001 0.002-0.001c0.039-0.039 0.064-0.087 0.088-0.133 0.007-0.014 0.020-0.025 0.026-0.039 0.016-0.040 0.019-0.084 0.025-0.127 0.003-0.024 0.014-0.047 0.014-0.071 0-0.035-0.013-0.069-0.020-0.104-0.006-0.032-0.006-0.064-0.018-0.094-0.020-0.049-0.054-0.093-0.090-0.135-0.010-0.012-0.014-0.026-0.025-0.037 0 0 0 0-0.001 0s-0.001-0.002-0.001-0.002l-1.582-1.575c-0.017-0.017-0.038-0.024-0.057-0.038-0.028-0.022-0.055-0.041-0.086-0.057-0.030-0.015-0.060-0.024-0.092-0.032-0.034-0.009-0.066-0.017-0.101-0.019-0.032-0.002-0.062 0.001-0.094 0.005-0.035 0.004-0.068 0.009-0.102 0.020-0.033 0.011-0.062 0.027-0.093 0.044-0.019 0.011-0.042 0.015-0.060 0.028l-1.746 1.303-0.887-0.883 2.362-2.349 4.293 4.223-0.913 0.905zM15.733 18.168c-0.015-0.002-0.029 0.004-0.045 0.003-0.038-0.002-0.075 0.001-0.113 0.007-0.030 0.005-0.058 0.011-0.087 0.021-0.034 0.012-0.064 0.027-0.095 0.046-0.029 0.018-0.056 0.037-0.082 0.060-0.013 0.011-0.028 0.016-0.039 0.029l-4.626 5.067-4.261-4.191 2.789-2.775c0.205-0.205 0.206-0.537 0.002-0.743-0.103-0.103-0.239-0.154-0.375-0.154v-0.001l-2.185 0.013 0.027-1.583 3.056 0.026c1.246 1.274 2.983 2.069 4.905 2.069 0.431 0 0.851-0.045 1.26-0.121 0.039 0.031 0.078 0.064 0.128 0.083l2.373 0.945 0.15 0.747 0.175 0.872-2.956-0.421zM19.712 18.344l-0.308-1.534 1.424-1.063 0.932 1.237-2.048 1.36zM23.408 15.556l-0.825 0.773-0.917-1.217 0.819-0.628c0.153-0.118 0.346-0.165 0.535-0.141 0.19 0.027 0.358 0.126 0.473 0.28 0.213 0.287 0.177 0.688-0.084 0.933z"></path>
<path d="M13.393 18.316l-2.11-2.101c-0.204-0.204-0.536-0.204-0.741 0l-2.109 2.101c-0.099 0.099-0.154 0.233-0.154 0.372s0.055 0.274 0.154 0.372l2.109 2.101c0.102 0.102 0.237 0.153 0.371 0.153s0.268-0.051 0.37-0.153l2.11-2.101c0.099-0.099 0.155-0.233 0.155-0.372s-0.056-0.274-0.155-0.372zM10.913 20.048l-1.365-1.36 1.365-1.36 1.366 1.36-1.366 1.36z"></path>
<path d="M16.9 5.050l-0.254 1.020c0.070 0.017 1.711 0.445 1.711 2.116h1.050c-0-1.986-1.64-2.92-2.508-3.136z"></path>
<path d="M19.408 9.236h-1.050v1.050h1.050v-1.050z"></path>
</symbol>
<symbol id="icon-clock" viewBox="0 0 32 32">
<path d="M31.203 15.095c-0.002-8.322-6.75-15.068-15.072-15.066s-15.068 6.75-15.066 15.072c0.001 6.556 4.241 12.358 10.486 14.352 0.060 0.019 0.122 0.028 0.184 0.028 0.119-0 0.235-0.032 0.337-0.092 0.133-0.079 0.232-0.204 0.279-0.351l3.806-12.062c1.040-0.005 1.879-0.853 1.874-1.893s-0.853-1.879-1.893-1.874c-0.28 0.001-0.556 0.066-0.807 0.188l-5.027-5.028c-0.249-0.241-0.647-0.234-0.888 0.015-0.235 0.243-0.235 0.629 0 0.873l5.025 5.030c-0.386 0.787-0.165 1.737 0.528 2.274l-3.626 11.493c-7.166-2.64-10.835-10.588-8.195-17.754s10.588-10.835 17.754-8.195c7.166 2.64 10.835 10.589 8.195 17.754-1.29 3.501-3.939 6.332-7.347 7.851l-0.392-1.845c-0.072-0.339-0.405-0.556-0.744-0.484-0.107 0.023-0.206 0.073-0.288 0.146l-3.778 3.373c-0.259 0.231-0.282 0.627-0.051 0.887 0.075 0.084 0.171 0.147 0.279 0.181l4.823 1.539c0.33 0.106 0.684-0.075 0.79-0.406 0.034-0.104 0.039-0.215 0.017-0.323l-0.385-1.811c5.577-2.351 9.198-7.82 9.185-13.872zM16.134 14.467c0.347 0 0.628 0.281 0.628 0.628s-0.281 0.628-0.628 0.628c-0.347 0-0.628-0.281-0.628-0.628s0.281-0.628 0.628-0.628zM18.202 29.102l2.151-1.918 0.594 2.797-2.744-0.878z"></path>
<path d="M15.506 3.165v1.256c0 0.347 0.281 0.628 0.628 0.628s0.628-0.281 0.628-0.628v-1.256c0-0.347-0.281-0.628-0.628-0.628s-0.628 0.281-0.628 0.628z"></path>
<path d="M4.204 14.467c-0.347 0-0.628 0.281-0.628 0.628s0.281 0.628 0.628 0.628h1.256c0.347 0 0.628-0.281 0.628-0.628s-0.281-0.628-0.628-0.628h-1.256z"></path>
<path d="M28.063 15.722c0.347 0 0.628-0.281 0.628-0.628s-0.281-0.628-0.628-0.628h-1.256c-0.347 0-0.628 0.281-0.628 0.628s0.281 0.628 0.628 0.628h1.256z"></path>
</symbol>
<symbol id="icon-diagram" viewBox="0 0 32 32">
<path d="M14.716 14.763h1.050v4.724h-1.050v-4.724z"></path>
<path d="M18.915 16.863h1.050v2.624h-1.050v-2.624z"></path>
<path d="M10.518 18.437h1.050v1.050h-1.050v-1.050z"></path>
<path d="M7.368 17.912h1.050v1.575h-1.050v-1.575z"></path>
<path d="M1.595 27.884h25.193c0.87 0 1.575-0.705 1.575-1.575v-2.099c0-0.869-0.705-1.575-1.575-1.575h-0.525v-13.089l2.981-2.824c0.692 0.341 1.529 0.134 1.982-0.491s0.39-1.485-0.15-2.037-1.398-0.634-2.033-0.195c-0.635 0.439-0.86 1.272-0.534 1.971l-2.246 2.129v-1.211c0-0.87-0.705-1.575-1.575-1.575h-20.994c-0.87 0-1.575 0.705-1.575 1.575v15.746h-0.525c-0.87 0-1.575 0.705-1.575 1.575v2.099c0 0.869 0.705 1.575 1.575 1.575zM29.937 4.791c0.29 0 0.525 0.235 0.525 0.525s-0.235 0.525-0.525 0.525c-0.29 0-0.525-0.235-0.525-0.525s0.235-0.525 0.525-0.525zM3.17 6.89c0-0.29 0.235-0.525 0.525-0.525h20.994c0.29 0 0.525 0.235 0.525 0.525v2.204l-1.050 0.997v-2.152c0-0.29-0.235-0.525-0.525-0.525h-18.895c-0.29 0-0.525 0.235-0.525 0.525v13.121c0 0.29 0.235 0.525 0.525 0.525h18.895c0.29 0 0.525-0.235 0.525-0.525v-9.525l1.050-0.995v12.095h-22.044v-15.746zM7.893 13.713c-0.71-0.002-1.334 0.471-1.522 1.156s0.104 1.411 0.714 1.773c0.61 0.362 1.388 0.271 1.899-0.222l1.824 0.915c0.212 0.106 0.469 0.056 0.627-0.121l3.878-4.363 3.812 2.857c0.204 0.153 0.49 0.137 0.676-0.039l3.313-3.139v8.006h-17.845v-12.072h17.845v2.619l-3.713 3.517-3.844-2.882c-0.218-0.164-0.526-0.133-0.707 0.071l-3.932 4.424-1.47-0.735c0.011-0.063 0.017-0.127 0.020-0.19 0-0.87-0.705-1.575-1.575-1.575zM8.418 15.288c0 0.29-0.235 0.525-0.525 0.525s-0.525-0.235-0.525-0.525c0-0.29 0.235-0.525 0.525-0.525s0.525 0.235 0.525 0.525zM11.567 23.686h5.249v0.525c0 0.29-0.235 0.525-0.525 0.525h-4.199c-0.29 0-0.525-0.235-0.525-0.525v-0.525zM1.070 24.21c0-0.29 0.235-0.525 0.525-0.525h8.923v0.525c0 0.87 0.705 1.575 1.575 1.575h4.199c0.869 0 1.575-0.705 1.575-1.575v-0.525h8.922c0.29 0 0.525 0.235 0.525 0.525v2.099c0 0.29-0.235 0.525-0.525 0.525h-25.193c-0.29 0-0.525-0.235-0.525-0.525v-2.099z"></path>
</symbol>
<symbol id="icon-fb" viewBox="0 0 32 32">
<path d="M21.329 5.313h2.921v-5.088c-0.504-0.069-2.237-0.225-4.256-0.225-4.212 0-7.097 2.649-7.097 7.519v4.481h-4.648v5.688h4.648v14.312h5.699v-14.311h4.46l0.708-5.688h-5.169v-3.919c0.001-1.644 0.444-2.769 2.735-2.769z"></path>
</symbol>
<symbol id="icon-inst" viewBox="0 0 32 32">
<path d="M31.969 9.408c-0.075-1.7-0.35-2.869-0.744-3.882-0.406-1.075-1.031-2.038-1.851-2.838-0.8-0.813-1.769-1.444-2.832-1.844-1.019-0.394-2.181-0.669-3.882-0.744-1.713-0.081-2.257-0.1-6.601-0.1s-4.888 0.019-6.595 0.094c-1.7 0.075-2.869 0.35-3.882 0.744-1.075 0.406-2.038 1.031-2.838 1.85-0.813 0.8-1.444 1.769-1.844 2.832-0.394 1.019-0.669 2.182-0.744 3.882-0.081 1.713-0.1 2.257-0.1 6.601s0.019 4.888 0.094 6.595c0.075 1.7 0.35 2.869 0.744 3.882 0.406 1.075 1.038 2.038 1.85 2.838 0.8 0.813 1.769 1.444 2.832 1.844 1.019 0.394 2.182 0.669 3.882 0.744 1.706 0.075 2.25 0.094 6.595 0.094s4.888-0.019 6.595-0.094c1.7-0.075 2.869-0.35 3.882-0.744 2.151-0.831 3.851-2.532 4.682-4.682 0.394-1.019 0.669-2.182 0.744-3.882 0.075-1.707 0.094-2.25 0.094-6.595s-0.006-4.888-0.081-6.595zM29.087 22.473c-0.069 1.563-0.331 2.407-0.55 2.969-0.538 1.394-1.644 2.5-3.038 3.038-0.563 0.219-1.413 0.481-2.969 0.55-1.688 0.075-2.194 0.094-6.464 0.094s-4.782-0.019-6.464-0.094c-1.563-0.069-2.407-0.331-2.969-0.55-0.694-0.256-1.325-0.663-1.838-1.194-0.531-0.519-0.938-1.144-1.194-1.838-0.219-0.563-0.481-1.413-0.55-2.969-0.075-1.688-0.094-2.194-0.094-6.464s0.019-4.782 0.094-6.464c0.069-1.563 0.331-2.407 0.55-2.969 0.256-0.694 0.663-1.325 1.2-1.838 0.519-0.531 1.144-0.938 1.838-1.194 0.563-0.219 1.413-0.481 2.969-0.55 1.688-0.075 2.194-0.094 6.464-0.094 4.276 0 4.782 0.019 6.464 0.094 1.563 0.069 2.407 0.331 2.969 0.55 0.694 0.256 1.325 0.662 1.838 1.194 0.531 0.519 0.938 1.144 1.194 1.838 0.219 0.563 0.481 1.413 0.55 2.969 0.075 1.688 0.094 2.194 0.094 6.464s-0.019 4.77-0.094 6.458z"></path>
<path d="M16.059 7.783c-4.538 0-8.22 3.682-8.22 8.22s3.682 8.22 8.22 8.22c4.539 0 8.22-3.682 8.22-8.22s-3.682-8.22-8.22-8.22zM16.059 21.335c-2.944 0-5.332-2.388-5.332-5.332s2.388-5.332 5.332-5.332c2.945 0 5.332 2.388 5.332 5.332s-2.388 5.332-5.332 5.332z"></path>
<path d="M26.524 7.458c0 1.060-0.859 1.919-1.919 1.919s-1.919-0.859-1.919-1.919c0-1.060 0.859-1.919 1.919-1.919s1.919 0.859 1.919 1.919z"></path>
</symbol>
<symbol id="icon-li" viewBox="0 0 32 32">
<path d="M31.992 32v-0.001h0.008v-11.736c0-5.741-1.236-10.164-7.948-10.164-3.227 0-5.392 1.771-6.276 3.449h-0.093v-2.913h-6.364v21.364h6.627v-10.579c0-2.785 0.528-5.479 3.977-5.479 3.399 0 3.449 3.179 3.449 5.657v10.401h6.62z"></path>
<path d="M0.528 10.636h6.635v21.364h-6.635v-21.364z"></path>
<path d="M3.843 0c-2.121 0-3.843 1.721-3.843 3.843s1.721 3.879 3.843 3.879c2.121 0 3.843-1.757 3.843-3.879-0.001-2.121-1.723-3.843-3.843-3.843v0z"></path>
</symbol>
<symbol id="icon-tw" viewBox="0 0 32 32">
<path d="M32 6.078c-1.19 0.522-2.458 0.868-3.78 1.036 1.36-0.812 2.398-2.088 2.886-3.626-1.268 0.756-2.668 1.29-4.16 1.588-1.204-1.282-2.92-2.076-4.792-2.076-3.632 0-6.556 2.948-6.556 6.562 0 0.52 0.044 1.020 0.152 1.496-5.454-0.266-10.28-2.88-13.522-6.862-0.566 0.982-0.898 2.106-0.898 3.316 0 2.272 1.17 4.286 2.914 5.452-1.054-0.020-2.088-0.326-2.964-0.808 0 0.020 0 0.046 0 0.072 0 3.188 2.274 5.836 5.256 6.446-0.534 0.146-1.116 0.216-1.72 0.216-0.42 0-0.844-0.024-1.242-0.112 0.85 2.598 3.262 4.508 6.13 4.57-2.232 1.746-5.066 2.798-8.134 2.798-0.538 0-1.054-0.024-1.57-0.090 2.906 1.874 6.35 2.944 10.064 2.944 12.072 0 18.672-10 18.672-18.668 0-0.29-0.010-0.57-0.024-0.848 1.302-0.924 2.396-2.078 3.288-3.406z"></path>
</symbol>
</defs>
</svg>
